G04 PROTEUS GERBER X2 FILE*
%TF.GenerationSoftware,Labcenter,Proteus,8.5-SP0-Build22067*%
%TF.CreationDate,2020-12-07T21:36:56+00:00*%
%TF.FileFunction,AssemblyDrawing,Top*%
%TF.FilePolarity,Positive*%
%TF.Part,Single*%
%FSLAX45Y45*%
%MOMM*%
G01*
%TA.AperFunction,Profile*%
%ADD13C,0.203200*%
%ADD70C,0.164590*%
%TA.AperFunction,Material*%
%ADD14C,0.203200*%
%ADD71C,0.164590*%
%ADD20C,0.106680*%
%ADD21C,0.050000*%
%ADD22C,0.118330*%
D23*
X-3058160Y+1132840D02*
X-2529840Y+1132840D01*
X-2529840Y+1407160D01*
X-3058160Y+1407160D01*
X-3058160Y+1132840D01*
D24*
X-2826919Y+1237081D02*
X-2843378Y+1220622D01*
X-2892755Y+1220622D01*
X-2925673Y+1253540D01*
X-2925673Y+1286459D01*
X-2892755Y+1319377D01*
X-2843378Y+1319377D01*
X-2826919Y+1302918D01*
X-2761082Y+1286459D02*
X-2728164Y+1319377D01*
X-2728164Y+1220622D01*
D14*
X-3439160Y+243840D02*
X-2910840Y+243840D01*
X-2910840Y+518160D01*
X-3439160Y+518160D01*
X-3439160Y+243840D01*
D71*
X-3207919Y+348081D02*
X-3224378Y+331622D01*
X-3273755Y+331622D01*
X-3306673Y+364540D01*
X-3306673Y+397459D01*
X-3273755Y+430377D01*
X-3224378Y+430377D01*
X-3207919Y+413918D01*
X-3158541Y+413918D02*
X-3142082Y+430377D01*
X-3092705Y+430377D01*
X-3076246Y+413918D01*
X-3076246Y+397459D01*
X-3092705Y+381000D01*
X-3142082Y+381000D01*
X-3158541Y+364540D01*
X-3158541Y+331622D01*
X-3076246Y+331622D01*
D14*
X-2374900Y+800100D02*
X-2197100Y+800100D01*
X-2197100Y+1993900D01*
X-2374900Y+1993900D01*
X-2374900Y+800100D01*
D20*
X-2253996Y+1311656D02*
X-2318004Y+1311656D01*
X-2318004Y+1364996D01*
X-2307336Y+1375664D01*
X-2296668Y+1375664D01*
X-2286000Y+1364996D01*
X-2286000Y+1311656D01*
X-2286000Y+1364996D02*
X-2275332Y+1375664D01*
X-2253996Y+1375664D01*
X-2296668Y+1418336D02*
X-2318004Y+1439672D01*
X-2253996Y+1439672D01*
D14*
X-2755900Y-215900D02*
X-2578100Y-215900D01*
X-2578100Y+977900D01*
X-2755900Y+977900D01*
X-2755900Y-215900D01*
D20*
X-2634996Y+295656D02*
X-2699004Y+295656D01*
X-2699004Y+348996D01*
X-2688336Y+359664D01*
X-2677668Y+359664D01*
X-2667000Y+348996D01*
X-2667000Y+295656D01*
X-2667000Y+348996D02*
X-2656332Y+359664D01*
X-2634996Y+359664D01*
X-2688336Y+391668D02*
X-2699004Y+402336D01*
X-2699004Y+434340D01*
X-2688336Y+445008D01*
X-2677668Y+445008D01*
X-2667000Y+434340D01*
X-2667000Y+402336D01*
X-2656332Y+391668D01*
X-2634996Y+391668D01*
X-2634996Y+445008D01*
D21*
X-3167000Y+819000D02*
X-3167000Y+1169000D01*
X-3437000Y+1169000D01*
X-3437000Y+819000D01*
X-3167000Y+819000D01*
X-3352000Y+994000D02*
X-3252000Y+994000D01*
X-3302000Y+1044000D02*
X-3302000Y+944000D01*
D22*
X-3337500Y+899334D02*
X-3278333Y+899334D01*
X-3266500Y+911167D01*
X-3266500Y+958500D01*
X-3278333Y+970333D01*
X-3337500Y+970333D01*
X-3313833Y+1017666D02*
X-3337500Y+1041333D01*
X-3266500Y+1041333D01*
D13*
X-3683000Y-381000D02*
X-2032000Y-381000D01*
X-2032000Y+2159000D01*
X-3683000Y+2159000D01*
X-3683000Y-381000D01*
M02*
