G04 PROTEUS GERBER X2 FILE*
%TF.GenerationSoftware,Labcenter,Proteus,8.5-SP0-Build22067*%
%TF.CreationDate,2020-12-07T21:36:56+00:00*%
%TF.FileFunction,Legend,Top*%
%TF.FilePolarity,Positive*%
%TF.Part,Single*%
%FSLAX45Y45*%
%MOMM*%
G01*
%TA.AperFunction,Material*%
%ADD14C,0.203200*%
%ADD15C,0.250000*%
%ADD16C,0.200000*%
%TA.AperFunction,Profile*%
%ADD13C,0.203200*%
D14*
X-3048000Y+1270000D02*
X-3042920Y+1295876D01*
X-3028315Y+1319848D01*
X-3005138Y+1341438D01*
X-2974340Y+1360170D01*
X-2936875Y+1375569D01*
X-2893695Y+1387158D01*
X-2845752Y+1394460D01*
X-2794000Y+1397000D01*
X-2540000Y+1270000D02*
X-2545080Y+1295876D01*
X-2559685Y+1319848D01*
X-2582862Y+1341438D01*
X-2613660Y+1360170D01*
X-2651125Y+1375569D01*
X-2694305Y+1387158D01*
X-2742248Y+1394460D01*
X-2794000Y+1397000D01*
X-3048000Y+1270000D02*
X-3042920Y+1244124D01*
X-3028315Y+1220152D01*
X-3005138Y+1198562D01*
X-2974340Y+1179830D01*
X-2936875Y+1164431D01*
X-2893695Y+1152842D01*
X-2845752Y+1145540D01*
X-2794000Y+1143000D01*
X-2540000Y+1270000D02*
X-2545080Y+1244124D01*
X-2559685Y+1220152D01*
X-2582862Y+1198562D01*
X-2613660Y+1179830D01*
X-2651125Y+1164431D01*
X-2694305Y+1152842D01*
X-2742248Y+1145540D01*
X-2794000Y+1143000D01*
X-2825750Y+1452880D02*
X-2841625Y+1437640D01*
X-2889250Y+1437640D01*
X-2921000Y+1468120D01*
X-2921000Y+1498600D01*
X-2889250Y+1529080D01*
X-2841625Y+1529080D01*
X-2825750Y+1513840D01*
X-2762250Y+1498600D02*
X-2730500Y+1529080D01*
X-2730500Y+1437640D01*
X-3429000Y+381000D02*
X-3423920Y+406876D01*
X-3409315Y+430848D01*
X-3386138Y+452438D01*
X-3355340Y+471170D01*
X-3317875Y+486569D01*
X-3274695Y+498158D01*
X-3226752Y+505460D01*
X-3175000Y+508000D01*
X-2921000Y+381000D02*
X-2926080Y+406876D01*
X-2940685Y+430848D01*
X-2963862Y+452438D01*
X-2994660Y+471170D01*
X-3032125Y+486569D01*
X-3075305Y+498158D01*
X-3123248Y+505460D01*
X-3175000Y+508000D01*
X-3429000Y+381000D02*
X-3423920Y+355124D01*
X-3409315Y+331152D01*
X-3386138Y+309562D01*
X-3355340Y+290830D01*
X-3317875Y+275431D01*
X-3274695Y+263842D01*
X-3226752Y+256540D01*
X-3175000Y+254000D01*
X-2921000Y+381000D02*
X-2926080Y+355124D01*
X-2940685Y+331152D01*
X-2963862Y+309562D01*
X-2994660Y+290830D01*
X-3032125Y+275431D01*
X-3075305Y+263842D01*
X-3123248Y+256540D01*
X-3175000Y+254000D01*
X-3206750Y+563880D02*
X-3222625Y+548640D01*
X-3270250Y+548640D01*
X-3302000Y+579120D01*
X-3302000Y+609600D01*
X-3270250Y+640080D01*
X-3222625Y+640080D01*
X-3206750Y+624840D01*
X-3159125Y+624840D02*
X-3143250Y+640080D01*
X-3095625Y+640080D01*
X-3079750Y+624840D01*
X-3079750Y+609600D01*
X-3095625Y+594360D01*
X-3143250Y+594360D01*
X-3159125Y+579120D01*
X-3159125Y+548640D01*
X-3079750Y+548640D01*
X-2286000Y+1778000D02*
X-2286000Y+1651000D01*
X-2349500Y+1143000D02*
X-2222500Y+1143000D01*
X-2222500Y+1651000D01*
X-2349500Y+1651000D01*
X-2349500Y+1143000D01*
X-2286000Y+1143000D02*
X-2286000Y+1016000D01*
X-2090420Y+1270000D02*
X-2181860Y+1270000D01*
X-2181860Y+1349375D01*
X-2166620Y+1365250D01*
X-2151380Y+1365250D01*
X-2136140Y+1349375D01*
X-2136140Y+1270000D01*
X-2136140Y+1349375D02*
X-2120900Y+1365250D01*
X-2090420Y+1365250D01*
X-2151380Y+1428750D02*
X-2181860Y+1460500D01*
X-2090420Y+1460500D01*
X-2667000Y+762000D02*
X-2667000Y+635000D01*
X-2730500Y+127000D02*
X-2603500Y+127000D01*
X-2603500Y+635000D01*
X-2730500Y+635000D01*
X-2730500Y+127000D01*
X-2667000Y+127000D02*
X-2667000Y+0D01*
X-2471420Y+254000D02*
X-2562860Y+254000D01*
X-2562860Y+333375D01*
X-2547620Y+349250D01*
X-2532380Y+349250D01*
X-2517140Y+333375D01*
X-2517140Y+254000D01*
X-2517140Y+333375D02*
X-2501900Y+349250D01*
X-2471420Y+349250D01*
X-2547620Y+396875D02*
X-2562860Y+412750D01*
X-2562860Y+460375D01*
X-2547620Y+476250D01*
X-2532380Y+476250D01*
X-2517140Y+460375D01*
X-2517140Y+412750D01*
X-2501900Y+396875D01*
X-2471420Y+396875D01*
X-2471420Y+476250D01*
D15*
X-3429500Y+869000D02*
X-3429543Y+870039D01*
X-3429895Y+872118D01*
X-3430632Y+874197D01*
X-3431836Y+876276D01*
X-3433677Y+878326D01*
X-3435756Y+879829D01*
X-3437835Y+880786D01*
X-3439914Y+881325D01*
X-3441993Y+881500D01*
X-3442000Y+881500D01*
X-3454500Y+869000D02*
X-3454457Y+870039D01*
X-3454105Y+872118D01*
X-3453368Y+874197D01*
X-3452164Y+876276D01*
X-3450323Y+878326D01*
X-3448244Y+879829D01*
X-3446165Y+880786D01*
X-3444086Y+881325D01*
X-3442007Y+881500D01*
X-3442000Y+881500D01*
X-3454500Y+869000D02*
X-3454457Y+867961D01*
X-3454105Y+865882D01*
X-3453368Y+863803D01*
X-3452164Y+861724D01*
X-3450323Y+859674D01*
X-3448244Y+858171D01*
X-3446165Y+857214D01*
X-3444086Y+856675D01*
X-3442007Y+856500D01*
X-3442000Y+856500D01*
X-3429500Y+869000D02*
X-3429543Y+867961D01*
X-3429895Y+865882D01*
X-3430632Y+863803D01*
X-3431836Y+861724D01*
X-3433677Y+859674D01*
X-3435756Y+858171D01*
X-3437835Y+857214D01*
X-3439914Y+856675D01*
X-3441993Y+856500D01*
X-3442000Y+856500D01*
D16*
X-3192000Y+969000D02*
X-3192000Y+1019000D01*
X-3412000Y+1019000D01*
X-3412000Y+969000D01*
X-3192000Y+969000D01*
D14*
X-3588920Y+867000D02*
X-3512720Y+867000D01*
X-3497480Y+882875D01*
X-3497480Y+946375D01*
X-3512720Y+962250D01*
X-3588920Y+962250D01*
X-3558440Y+1025750D02*
X-3588920Y+1057500D01*
X-3497480Y+1057500D01*
D13*
X-3683000Y-381000D02*
X-2032000Y-381000D01*
X-2032000Y+2159000D01*
X-3683000Y+2159000D01*
X-3683000Y-381000D01*
M02*
